# xmcd
#
# Track frame offsets: 
#        150
#        19395
#        40629
#        62515
#        85537
#        107214
#        130994
#        152894
#        175432
#        196770
#        214463
#        234508
#        255179
#
# Disc length: 3661 seconds
#
# Revision: 0
# Processed by: cddbd v1.5.2PL0 Copyright (c) Steve Scherf et al.
# Submitted via: ExactAudioCopyFreeDBPlugin 1.0
#
DISCID=a90e4b0d
DTITLE=孙露 - stereo 寂寞诱惑
DYEAR=2011
DGENRE=Acid
TTITLE0=爱情的秋天
TTITLE1=多想把你留住
TTITLE2=猜心
TTITLE3=无法原谅（回家的诱惑主题曲）
TTITLE4=我爱你却要离开你
TTITLE5=小小的太阳
TTITLE6=小小新娘花
TTITLE7=被伤过的心还可以爱谁
TTITLE8=难忍的悲
TTITLE9=这一生说过我爱你
TTITLE10=突然的自我
TTITLE11=心痛证明我爱你（原创）
TTITLE12=人生何处不相逢
EXTD=
EXTT0=
EXTT1=
EXTT2=
EXTT3=
EXTT4=
EXTT5=
EXTT6=
EXTT7=
EXTT8=
EXTT9=
EXTT10=
EXTT11=
EXTT12=
PLAYORDER=
